<svg xmlns="http://www.w3.org/2000/svg" viewBox="0 0 24 24">
    <path d="M 12.0273 2 C 11.6993 2 11.3921 2.16164 11.2051 2.43164 L 6.66797 9 L 2.00195 9 C 1.68895 9 1.39508 9.14553 1.20508 9.39453 C 1.01708 9.64253 0.953156 9.96463 1.03516 10.2656 L 3.5957 19.5313 C 3.8347 20.3953 4.62744 21 5.52344 21 L 12.2949 21 C 12.1983 20.6757 12.1241 20.3419 12.0742 20 L 12.0801 20 C 12.0331 19.673 12 19.34 12 19 C 12 15.134 15.134 12 19 12 C 19.801 12 20.5672 12.1407 21.2832 12.3887 C 21.621 12.5058 21.9494 12.6439 22.2617 12.8086 L 22.9629 10.2676 C 23.0459 9.96658 22.9829 9.64253 22.7949 9.39453 C 22.6049 9.14553 22.31 9 21.998 9 L 17.3398 9 L 12.8535 2.43555 C 12.6675 2.16355 12.3603 2.001 12.0313 2 L 12.0273 2 Z M 12.0234 4.76563 L 14.916 9 L 9.09766 9 L 12.0234 4.76563 Z M 19 14 C 16.239 14 14 16.239 14 19 C 14 21.761 16.239 24 19 24 C 21.761 24 24 21.761 24 19 C 24 16.239 21.761 14 19 14 Z M 18 16 L 20 16 L 20 18 L 22 18 L 22 20 L 20 20 L 20 22 L 18 22 L 18 20 L 16 20 L 16 18 L 18 18 L 18 16 Z" />
</svg>